<?xml version="1.0" standalone="no"?>
<!DOCTYPE svg PUBLIC "-//W3C//DTD SVG 20010904//EN"
 "http://www.w3.org/TR/2001/REC-SVG-20010904/DTD/svg10.dtd">
<svg version="1.0" xmlns="http://www.w3.org/2000/svg"
 width="1024.000000pt" height="1024.000000pt" viewBox="0 0 1024.000000 1024.000000"
 preserveAspectRatio="xMidYMid meet">
<metadata>
Created by potrace 1.11, written by Peter Selinger 2001-2013
</metadata>
<g transform="translate(0.000000,1024.000000) scale(0.100000,-0.100000)"
fill="#000000" stroke="none">
<path d="M6629 9435 c-210 -51 -456 -251 -553 -449 -84 -173 -88 -402 -10
-616 13 -37 24 -69 24 -71 0 -3 -530 -531 -1178 -1175 l-1178 -1171 -100 33
c-295 98 -537 56 -740 -129 -138 -126 -244 -287 -275 -417 -14 -58 -18 -235
-5 -247 4 -4 109 95 234 220 l227 227 385 -385 385 -385 -243 -243 c-133 -133
-242 -246 -242 -251 0 -18 197 2 276 29 264 89 517 362 570 615 22 104 14 265
-20 390 l-25 95 1195 1193 c913 912 1199 1192 1212 1187 90 -36 174 -49 322
-49 151 -1 157 0 231 30 99 40 177 92 272 183 145 139 233 285 262 434 17 88
20 197 6 197 -5 0 -119 -113 -254 -251 l-244 -251 -386 367 c-213 202 -387
370 -387 374 0 3 115 121 255 261 140 140 255 258 255 262 0 13 -211 7 -271
-7z m-1407 -2454 c61 -68 22 -176 -68 -188 -97 -13 -164 81 -119 167 35 68
135 79 187 21z"/>
<path d="M3413 9433 c-18 -2 -33 -7 -33 -11 0 -4 101 -108 225 -232 l225 -225
-386 -385 -385 -385 -245 250 -245 250 4 -120 c4 -101 9 -132 32 -194 73 -192
271 -406 460 -496 149 -72 337 -82 538 -31 l98 25 436 -440 437 -440 218 218
218 218 -432 432 -432 432 32 101 c82 259 66 470 -48 646 -51 77 -225 246
-303 293 -137 81 -271 112 -414 94z"/>
<path d="M2179 8522 l-44 -251 -60 -17 c-89 -24 -224 -85 -310 -139 -52 -32
-80 -44 -88 -37 -153 119 -335 260 -346 266 -14 9 -103 -74 -233 -216 l-70
-77 156 -200 156 -200 -35 -56 c-57 -89 -129 -244 -155 -333 -15 -50 -30 -84
-39 -86 -18 -6 -394 -76 -404 -76 -4 0 -7 -96 -7 -214 l0 -214 27 -6 c16 -3
100 -17 188 -31 233 -37 211 -28 226 -88 19 -83 78 -245 115 -318 19 -38 34
-74 34 -81 -1 -7 -52 -107 -115 -223 l-113 -209 110 -116 c61 -63 115 -117
120 -118 5 -2 97 46 203 107 107 61 200 111 206 111 6 0 31 -14 55 -31 65 -45
217 -114 306 -140 l77 -23 46 -195 c26 -108 50 -209 54 -226 l7 -30 117 -3
117 -3 0 448 0 448 -90 22 c-319 78 -546 293 -635 600 -31 104 -48 338 -34
459 34 302 205 548 474 682 78 39 224 92 251 92 12 0 14 47 14 273 0 149 -3
363 -7 473 l-6 202 -61 6 c-34 4 -84 9 -112 12 l-50 6 -45 -250z"/>
<path d="M7940 8758 c-47 -5 -85 -10 -86 -11 -1 -1 -3 -213 -5 -471 l-4 -469
85 -27 c426 -135 660 -447 660 -879 0 -294 -72 -505 -230 -674 -116 -124 -276
-218 -445 -259 l-83 -21 -7 -433 c-4 -238 -5 -440 -2 -449 5 -12 27 -15 117
-15 105 0 111 1 119 23 4 12 30 115 56 228 l49 206 77 23 c73 21 252 103 330
152 l36 22 197 -112 c108 -62 199 -112 204 -112 7 0 61 55 185 186 l48 51
-116 215 -115 214 44 95 c48 102 86 210 106 301 11 49 17 58 39 62 14 3 100
17 191 31 91 14 175 28 188 31 22 4 22 5 22 218 l0 214 -162 30 c-90 17 -182
34 -204 38 -23 3 -45 9 -50 13 -5 3 -20 42 -32 86 -27 93 -81 211 -140 309
-23 37 -42 72 -42 77 0 5 66 93 146 196 81 104 149 194 151 201 5 12 -261 295
-282 299 -5 2 -91 -60 -189 -137 -99 -77 -181 -140 -182 -140 -2 0 -29 16 -59
36 -83 52 -209 111 -303 141 -64 20 -83 30 -87 47 -3 11 -21 111 -40 221 -20
110 -38 212 -41 228 -6 31 -4 30 -144 15z"/>
<path d="M5432 6568 l-212 -213 431 -431 431 -431 -28 -109 c-38 -146 -41
-321 -7 -429 73 -229 331 -483 565 -554 75 -23 228 -38 251 -25 12 7 -38 61
-237 256 l-253 246 371 392 371 391 256 -263 c141 -145 261 -259 265 -255 16
15 8 208 -10 276 -38 142 -133 288 -270 418 -142 135 -287 193 -478 193 -109
0 -216 -19 -317 -55 l-66 -25 -415 415 c-228 228 -420 415 -425 415 -6 0 -106
-96 -223 -212z"/>
<path d="M895 3724 c-77 -28 -135 -113 -135 -198 0 -74 83 -175 161 -196 55
-15 107 -1 171 46 184 133 122 365 -97 363 -33 0 -78 -7 -100 -15z"/>
<path d="M3299 3727 c-58 -22 -96 -54 -118 -100 -22 -46 -27 -119 -11 -161 25
-66 129 -146 190 -146 66 0 187 91 221 165 37 80 12 170 -62 220 -32 23 -53
29 -112 32 -45 2 -86 -2 -108 -10z"/>
<path d="M2430 3524 c-25 -3 -170 -18 -323 -34 -305 -33 -361 -35 -438 -19
-73 16 -115 1 -174 -62 -44 -47 -47 -53 -43 -97 3 -26 11 -68 18 -94 13 -43 9
-82 -63 -600 -126 -901 -131 -995 -54 -1076 49 -51 97 -72 167 -72 55 0 64 3
98 34 l37 34 6 269 c6 272 15 384 30 415 16 29 63 38 489 92 335 43 369 52
434 117 47 47 48 51 43 94 -5 49 -25 78 -72 104 -47 25 -226 20 -410 -12 -144
-25 -381 -57 -424 -57 -18 0 -21 6 -21 49 0 86 31 292 64 421 l31 125 67 17
c142 35 307 51 564 53 275 3 287 5 338 65 31 37 51 99 42 133 -6 26 -60 66
-116 86 -36 13 -211 22 -290 15z"/>
<path d="M4723 3078 c-28 -17 -51 -47 -107 -142 -26 -44 -71 -109 -99 -145
-62 -78 -261 -291 -299 -321 l-27 -21 -55 113 c-55 113 -68 161 -95 351 -17
122 -80 170 -191 146 -167 -36 -187 -256 -47 -534 16 -33 58 -106 93 -161 l64
-102 -184 -183 c-236 -236 -307 -345 -308 -476 -1 -100 46 -151 165 -174 54
-11 57 -11 77 12 11 13 49 83 85 156 70 141 173 289 269 382 30 30 57 53 59
50 3 -2 40 -49 84 -104 120 -149 266 -285 353 -329 81 -40 128 -45 188 -21 63
27 107 80 112 135 6 70 2 77 -61 117 -128 79 -261 186 -353 285 l-96 102 205
199 c289 281 415 438 415 516 -1 42 -35 106 -71 132 -39 28 -140 37 -176 17z"/>
<path d="M6640 3054 c-128 -19 -225 -57 -325 -128 -165 -119 -363 -361 -472
-581 -78 -156 -113 -288 -113 -432 0 -116 24 -187 87 -255 65 -68 120 -93 213
-92 199 0 429 151 640 421 l25 32 2 -106 c4 -241 70 -369 199 -389 90 -13 210
49 234 122 17 51 0 85 -59 118 -43 23 -51 33 -70 87 -32 86 -44 237 -32 384
11 117 17 160 61 410 21 124 19 167 -9 199 -20 23 -72 46 -105 46 -18 0 -27 8
-34 29 -31 88 -141 149 -242 135z m21 -304 c65 -35 66 -196 1 -343 -55 -124
-232 -354 -344 -446 -111 -91 -223 -128 -248 -82 -15 29 -12 148 5 216 37 146
182 378 332 535 110 115 191 153 254 120z"/>
<path d="M7553 3026 c-58 -26 -67 -52 -75 -227 -3 -87 -16 -225 -27 -306 -31
-222 -42 -376 -44 -608 -2 -209 -2 -210 25 -268 23 -48 34 -61 70 -77 51 -23
106 -25 153 -6 41 17 57 41 85 125 74 222 468 862 561 912 46 24 56 -23 69
-350 14 -353 32 -444 97 -502 92 -80 202 -78 300 5 56 48 136 182 286 481 185
368 214 409 257 370 26 -23 36 -81 60 -345 29 -321 65 -465 135 -547 92 -108
239 -111 353 -8 78 70 75 153 -7 194 -98 50 -133 151 -166 474 -32 314 -68
453 -136 530 -52 60 -106 81 -196 75 -181 -10 -285 -125 -498 -551 -125 -250
-152 -294 -168 -278 -6 6 -14 104 -18 233 -14 357 -35 457 -113 533 -48 46
-99 65 -178 65 -180 0 -383 -228 -611 -685 -69 -139 -69 -140 -63 -85 4 30 30
168 58 305 43 213 49 263 46 336 -7 140 -61 207 -178 216 -25 2 -59 -3 -77
-11z"/>
<path d="M700 2958 c-61 -32 -90 -89 -101 -205 -5 -49 -27 -191 -50 -318 -70
-394 -72 -411 -73 -600 -1 -173 0 -182 24 -229 32 -63 65 -88 128 -94 62 -6
107 15 162 74 45 49 45 49 25 159 -26 144 -15 398 25 595 11 52 41 172 66 265
68 247 64 298 -31 344 -67 33 -123 36 -175 9z"/>
<path d="M3116 2970 c-73 -23 -110 -94 -126 -245 -6 -49 -21 -155 -35 -235
-14 -80 -37 -210 -50 -289 -54 -311 -55 -535 -2 -612 63 -93 175 -104 263 -26
59 51 64 70 47 162 -18 94 -20 316 -3 450 15 129 35 221 91 428 57 213 61 261
22 308 -15 17 -41 37 -58 44 -43 19 -115 26 -149 15z"/>
<path d="M5169 1995 c-77 -24 -84 -39 -84 -174 0 -165 24 -201 134 -205 53 -1
99 20 170 79 70 58 92 94 98 162 5 54 3 62 -23 92 -15 19 -43 40 -61 47 -42
18 -174 17 -234 -1z"/>
<path d="M440 1230 c0 -7 1592 -10 4756 -10 3167 0 4753 3 4749 10 -9 14
-9505 14 -9505 0z"/>
</g>
</svg>
