<?xml version="1.0" standalone="no"?>
<!DOCTYPE svg PUBLIC "-//W3C//DTD SVG 20010904//EN"
 "http://www.w3.org/TR/2001/REC-SVG-20010904/DTD/svg10.dtd">
<svg version="1.0" xmlns="http://www.w3.org/2000/svg"
 width="1024.000000pt" height="1024.000000pt" viewBox="0 0 1024.000000 1024.000000"
 preserveAspectRatio="xMidYMid meet">
<metadata>
Created by potrace 1.11, written by Peter Selinger 2001-2013
</metadata>
<g transform="translate(0.000000,1024.000000) scale(0.100000,-0.100000)"
fill="#000000" stroke="none">
<path d="M6808 8130 c-261 -44 -575 -290 -683 -535 -45 -101 -59 -172 -59
-310 0 -141 9 -199 57 -344 l31 -95 -1319 -1312 -1320 -1311 -64 24 c-130 49
-227 67 -366 67 -152 0 -220 -15 -336 -75 -189 -98 -399 -340 -463 -533 -24
-71 -37 -188 -29 -268 l6 -70 259 259 258 258 432 -433 433 -432 -273 -273
c-149 -149 -272 -276 -272 -281 0 -13 196 0 265 18 236 63 506 296 619 537 56
117 70 186 69 329 -1 123 -16 221 -49 324 l-16 49 1335 1335 1335 1335 114
-28 c146 -37 348 -46 449 -21 149 38 293 130 431 274 176 185 259 370 258 579
l-1 88 -278 -285 -279 -285 -28 25 c-97 88 -840 795 -843 802 -1 5 129 138
289 296 329 322 317 300 165 300 -44 0 -101 -4 -127 -8z m-1655 -2727 c18 -9
37 -32 49 -60 17 -39 19 -52 9 -82 -35 -118 -201 -136 -247 -26 -18 43 -18 78
0 113 39 75 109 95 189 55z"/>
<path d="M3136 8113 c-15 -4 36 -59 238 -262 l256 -256 -433 -433 -434 -434
-270 276 c-149 152 -273 276 -277 276 -12 0 -6 -152 10 -228 34 -167 113 -302
268 -458 146 -147 280 -227 435 -260 130 -27 332 -13 488 35 l62 19 490 -492
490 -492 240 240 241 241 -485 485 -486 486 26 69 c62 163 86 343 65 480 -24
160 -87 281 -215 414 -150 156 -306 255 -450 286 -66 14 -217 18 -259 8z"/>
<path d="M1826 7349 c-3 -13 -26 -136 -50 -273 -25 -137 -48 -252 -53 -256 -4
-4 -40 -17 -80 -29 -106 -31 -219 -82 -323 -145 l-93 -56 -151 117 c-83 64
-176 136 -206 160 l-55 43 -83 -83 c-46 -45 -119 -120 -162 -167 l-78 -86 174
-224 c160 -206 173 -225 161 -244 -97 -153 -169 -304 -198 -416 -12 -47 -25
-88 -28 -92 -3 -3 -111 -26 -239 -49 l-232 -43 0 -237 0 -237 68 -12 c37 -6
143 -23 237 -38 l169 -27 16 -70 c26 -111 58 -201 117 -325 l54 -116 -132
-243 -132 -243 131 -131 131 -130 223 127 223 128 30 -18 c143 -83 187 -106
268 -137 50 -20 117 -44 147 -52 l55 -15 29 -123 c15 -67 42 -179 59 -249 l30
-128 129 0 128 0 0 178 c0 98 -3 321 -7 494 l-6 316 -71 17 c-318 76 -574 285
-687 558 -92 223 -114 538 -55 770 93 362 350 610 749 722 52 15 58 19 53 38
-3 12 -6 248 -6 523 l0 501 -47 6 c-27 4 -83 9 -125 13 -75 7 -77 6 -82 -17z"/>
<path d="M8270 7364 c-8 -1 -45 -6 -83 -9 l-67 -7 2 -525 3 -526 75 -22 c316
-92 563 -302 670 -568 66 -164 74 -212 74 -432 0 -223 -14 -307 -74 -463 -110
-285 -392 -515 -712 -582 l-58 -11 0 -187 c0 -103 -3 -325 -7 -494 l-6 -308
131 0 130 0 31 128 c16 70 42 179 57 242 14 63 31 120 36 126 5 7 25 15 46 19
90 16 247 88 417 190 l31 18 222 -127 c122 -70 225 -126 230 -124 4 2 63 60
131 130 l123 127 -131 243 -131 244 40 79 c55 109 89 201 121 325 l27 105 169
27 c92 15 198 32 236 38 l67 12 0 237 0 237 -232 43 c-128 23 -235 45 -237 47
-3 2 -12 35 -22 73 -29 113 -121 311 -201 431 l-17 26 174 224 174 224 -31 35
c-17 20 -89 96 -161 169 -86 88 -133 129 -141 124 -6 -5 -94 -74 -196 -152
-102 -78 -190 -147 -197 -152 -7 -6 -33 5 -75 32 -91 60 -215 118 -329 155
-55 18 -101 34 -104 36 -2 3 -25 119 -50 259 -25 140 -48 263 -51 273 -4 13
-15 17 -47 16 -23 -1 -49 -3 -57 -5z"/>
<path d="M5427 4922 c-130 -130 -237 -242 -237 -247 0 -5 214 -224 476 -486
l477 -477 -27 -103 c-93 -368 -28 -611 235 -870 131 -130 275 -218 413 -253
73 -19 228 -31 248 -20 12 7 -46 69 -268 284 l-283 275 77 80 c43 44 231 241
417 439 l340 359 292 -297 291 -296 7 66 c14 130 -12 270 -75 399 -80 163
-251 353 -389 435 -111 66 -207 92 -351 98 -144 5 -251 -11 -383 -58 l-82 -29
-470 469 -470 470 -238 -238z"/>
</g>
</svg>
