<?xml version="1.0" encoding="utf-8"?>
<!-- Generator: Adobe Illustrator 21.0.2, SVG Export Plug-In . SVG Version: 6.00 Build 0)  -->
<svg version="1.1" id="Layer_1" xmlns="http://www.w3.org/2000/svg" xmlns:xlink="http://www.w3.org/1999/xlink" x="0px" y="0px"
	 viewBox="0 0 299 299" style="enable-background:new 0 0 299 299;" xml:space="preserve">
<style type="text/css">
	.st0{fill:#0094FF;}
	.st1{fill:none;stroke:#0094FF;stroke-width:7;stroke-miterlimit:10;}
</style>
<g>
	<g>
		<path class="st0" d="M286.5,7c3,0,5.5,2.4,5.5,5.5v211.8c0,3-2.4,5.5-5.5,5.5h-99.7h-5.5h-7h-49.8h-7H112H12.5
			c-3,0-5.5-2.4-5.5-5.5V12.5C7,9.4,9.4,7,12.5,7H286.5 M17.9,218.8h7h249.2h7v-7V24.9v-7h-7H24.9h-7v7v186.9V218.8 M286.5,0h-274
			C5.6,0,0,5.6,0,12.5v211.8c0,6.9,5.6,12.5,12.5,12.5h99.7v24.9h-25c-6.9,0-12.5,5.6-12.5,12.5V299h12.5h124.6h12.5v-24.9
			c0-6.9-5.6-12.5-12.5-12.5h-24.9v-24.9h99.7c6.9,0,12.5-5.6,12.5-12.5V12.5C299,5.6,293.4,0,286.5,0L286.5,0z M24.9,211.8V24.9
			h249.2v186.9L24.9,211.8L24.9,211.8z M124.6,261.6v-24.9h49.8v24.9H124.6L124.6,261.6z M87.2,286.5V274h24.9h12.5h49.8h12.5h24.9
			v12.5H87.2L87.2,286.5z"/>
	</g>
	<g>
		<path class="st0" d="M154.4,196.8h-9.8c-2.7,0-4.9,2.2-4.9,4.9s2.2,4.9,4.9,4.9h9.8c2.7,0,4.9-2.2,4.9-4.9
			C159.3,198.9,157.1,196.8,154.4,196.8L154.4,196.8z"/>
	</g>
</g>
<g>
	<g>
		<g>
			<path class="st0" d="M87.2,72.4c-8.3,0-15,6.7-15,15s6.7,15,15,15s15-6.7,15-15S95.5,72.4,87.2,72.4L87.2,72.4z M87.2,97.4
				c-5.5,0-10-4.5-10-10s4.5-10,10-10s10,4.5,10,10S92.7,97.4,87.2,97.4L87.2,97.4z"/>
		</g>
	</g>
	<g>
		<g>
			<path class="st0" d="M97.4,34.9H77.1c-1.4,0-2.5,1.1-2.5,2.5v8.8C72,47,69.5,48,67.1,49.3L60.8,43c-0.5-0.5-1.1-0.7-1.8-0.7
				s-1.3,0.2-1.8,0.7L42.9,57.4c-0.5,0.5-0.7,1.1-0.7,1.8s0.3,1.3,0.7,1.8l6.3,6.3c-1.3,2.4-2.3,4.9-3.1,7.5h-8.8
				c-1.4,0-2.5,1.1-2.5,2.5v20.3c0,1.4,1.1,2.5,2.5,2.5h8.8c0.8,2.6,1.8,5.1,3.1,7.5l-6.3,6.3c-0.5,0.5-0.7,1.1-0.7,1.8
				c0,0.7,0.3,1.3,0.7,1.8l14.3,14.3c0.5,0.5,1.1,0.7,1.8,0.7s1.3-0.2,1.8-0.7l6.3-6.3c2.4,1.3,4.9,2.3,7.5,3.1v8.8
				c0,1.4,1.1,2.5,2.5,2.5h20.3c1.4,0,2.5-1.1,2.5-2.5v-8.8c2.6-0.8,5.1-1.8,7.5-3.1l6.3,6.3c0.5,0.5,1.1,0.7,1.8,0.7
				s1.3-0.2,1.8-0.7l14.3-14.3c1-1,1-2.6,0-3.5l-6.3-6.3c1.3-2.4,2.3-4.9,3.1-7.5h8.8c1.4,0,2.5-1.1,2.5-2.5V77.2
				c0-1.4-1.1-2.5-2.5-2.5h-8.8c-0.8-2.6-1.8-5.1-3.1-7.5l6.3-6.3c1-1,1-2.6,0-3.5l-14.3-14.3c-0.5-0.5-1.1-0.7-1.8-0.7
				s-1.3,0.2-1.8,0.7l-6.3,6.3c-2.4-1.3-4.9-2.3-7.5-3.1v-8.8C99.9,36,98.7,34.9,97.4,34.9L97.4,34.9z M66.6,54.9
				c0.4,0,0.9-0.1,1.3-0.3c3.1-1.8,6.4-3.2,9.8-4.1c1.1-0.3,1.9-1.3,1.9-2.4v-8.2h15.3v8.2c0,1.1,0.8,2.1,1.9,2.4
				c3.4,0.9,6.7,2.3,9.8,4.1c0.4,0.2,0.8,0.3,1.3,0.3c0.6,0,1.3-0.3,1.8-0.7l5.8-5.8l10.8,10.8l-5.8,5.8c-0.8,0.8-1,2.1-0.4,3
				c1.8,3.1,3.2,6.4,4.1,9.8c0.3,1.1,1.3,1.9,2.4,1.9h8.2V95h-8.2c-1.1,0-2.1,0.8-2.4,1.9c-0.9,3.4-2.3,6.7-4.1,9.8
				c-0.6,1-0.4,2.2,0.4,3l5.8,5.8l-10.8,10.8l-5.8-5.8c-0.5-0.5-1.1-0.7-1.8-0.7c-0.4,0-0.9,0.1-1.3,0.3c-3.1,1.8-6.4,3.2-9.8,4.1
				c-1.1,0.3-1.9,1.3-1.9,2.4v8.2H79.6v-8.2c0-1.1-0.8-2.1-1.9-2.4c-3.4-0.9-6.7-2.3-9.8-4.1c-0.4-0.2-0.8-0.3-1.3-0.3
				c-0.6,0-1.3,0.3-1.8,0.7l-5.8,5.8l-10.8-10.8l5.8-5.8c0.8-0.8,1-2.1,0.4-3c-1.8-3.1-3.2-6.4-4.1-9.8C50.1,95.8,49.1,95,48,95
				h-8.2V79.7H48c1.1,0,2.1-0.8,2.4-1.9c0.9-3.4,2.3-6.7,4.1-9.8c0.6-1,0.4-2.2-0.4-3l-5.8-5.8L59,48.4l5.8,5.8
				C65.4,54.7,66,54.9,66.6,54.9L66.6,54.9z"/>
		</g>
	</g>
</g>
<g>
	<g>
		<g>
			<path class="st0" d="M151,141.8c-4.1,0-8,2.6-9.5,6.7c-1.9,5.2,0.9,11,6.1,12.8c1.1,0.4,2.3,0.6,3.4,0.6c4.1,0,8-2.6,9.5-6.7
				c1.9-5.2-0.9-11-6.1-12.8C153.3,142,152.1,141.8,151,141.8L151,141.8z M151,158.5c-0.7,0-1.5-0.1-2.2-0.4c-3.5-1.2-5.3-5.1-4-8.6
				c1-2.7,3.6-4.4,6.3-4.4c0.7,0,1.5,0.1,2.2,0.4c3.5,1.2,5.3,5.1,4,8.6C156.3,156.8,153.7,158.5,151,158.5L151,158.5z"/>
		</g>
	</g>
	<g>
		<g>
			<path class="st0" d="M155.9,116.3c-0.7,0-1.3,0.4-1.6,1.1l-2,5.6c-0.4,0-0.9,0-1.3,0c-1.4,0-2.8,0.1-4.2,0.3l-2.5-5.4
				c-0.3-0.6-0.9-1-1.5-1c-0.2,0-0.5,0.1-0.7,0.2l-12.3,5.8c-0.4,0.2-0.7,0.5-0.9,0.9c-0.1,0.4-0.1,0.9,0.1,1.3l2.5,5.4
				c-1.4,1.2-2.6,2.6-3.7,4l-5.6-2c-0.2-0.1-0.4-0.1-0.6-0.1c-0.7,0-1.3,0.4-1.6,1.1l-4.6,12.8c-0.3,0.9,0.1,1.8,1,2.1l5.6,2
				c-0.1,1.8,0,3.6,0.3,5.4l-5.4,2.5c-0.4,0.2-0.7,0.5-0.9,0.9s-0.1,0.9,0.1,1.3l5.8,12.3c0.3,0.6,0.9,1,1.5,1
				c0.2,0,0.5-0.1,0.7-0.2l5.4-2.5c1.2,1.4,2.6,2.6,4,3.7l-2,5.6c-0.3,0.9,0.1,1.8,1,2.1l12.8,4.6c0.2,0.1,0.4,0.1,0.6,0.1
				c0.7,0,1.3-0.4,1.6-1.1l2-5.6c0.4,0,0.9,0,1.3,0c1.4,0,2.8-0.1,4.2-0.3l2.5,5.4c0.3,0.6,0.9,1,1.5,1c0.2,0,0.5-0.1,0.7-0.2
				l12.3-5.8c0.8-0.4,1.2-1.4,0.8-2.2l-2.5-5.4c1.4-1.2,2.6-2.6,3.7-4l5.6,2c0.2,0.1,0.4,0.1,0.6,0.1c0.7,0,1.3-0.4,1.6-1.1
				l4.6-12.8c0.3-0.9-0.1-1.8-1-2.1l-5.6-2c0.1-1.8,0-3.6-0.3-5.4l5.4-2.5c0.8-0.4,1.2-1.4,0.8-2.2l-5.8-12.3c-0.3-0.6-0.9-1-1.5-1
				c-0.2,0-0.5,0.1-0.7,0.2l-5.4,2.5c-1.2-1.4-2.6-2.6-4-3.7l2-5.6c0.3-0.9-0.1-1.8-1-2.1l-12.8-4.6
				C156.2,116.4,156.1,116.3,155.9,116.3L155.9,116.3z M153.5,126.5c0.7,0,1.3-0.4,1.6-1.1l1.9-5.2l9.6,3.4l-1.9,5.2
				c-0.3,0.7,0,1.5,0.6,1.9c2,1.3,3.7,2.9,5.3,4.8c0.3,0.4,0.8,0.6,1.3,0.6c0.2,0,0.5-0.1,0.7-0.2l5-2.4l4.4,9.2l-5,2.4
				c-0.7,0.3-1.1,1.1-0.9,1.8c0.5,2.4,0.6,4.7,0.4,7.1c-0.1,0.8,0.4,1.5,1.1,1.7l5.2,1.9l-3.4,9.6l-5.2-1.9
				c-0.2-0.1-0.4-0.1-0.6-0.1c-0.5,0-1.1,0.3-1.4,0.7c-1.3,2-2.9,3.7-4.8,5.3c-0.6,0.5-0.8,1.3-0.4,2l2.4,5l-9.2,4.4l-2.4-5
				c-0.3-0.6-0.9-1-1.5-1c-0.1,0-0.2,0-0.3,0c-1.6,0.3-3.2,0.5-4.8,0.5c-0.8,0-1.5,0-2.3-0.1c-0.1,0-0.1,0-0.2,0
				c-0.7,0-1.3,0.4-1.6,1.1l-1.9,5.2l-9.6-3.4l1.9-5.2c0.3-0.7,0-1.5-0.6-1.9c-2-1.3-3.7-2.9-5.3-4.8c-0.3-0.4-0.8-0.6-1.3-0.6
				c-0.2,0-0.5,0.1-0.7,0.2l-5,2.4l-4.4-9.2l5-2.4c0.7-0.3,1.1-1.1,0.9-1.8c-0.5-2.4-0.6-4.7-0.4-7.1c0.1-0.8-0.4-1.5-1.1-1.7
				l-5.2-1.9l3.4-9.6l5.2,1.9c0.2,0.1,0.4,0.1,0.6,0.1c0.5,0,1.1-0.3,1.4-0.7c1.3-2,2.9-3.7,4.8-5.3c0.6-0.5,0.8-1.3,0.4-2l-2.4-5
				l9.2-4.4l2.4,5c0.3,0.6,0.9,1,1.5,1c0.1,0,0.2,0,0.3,0c1.6-0.3,3.2-0.5,4.8-0.5c0.8,0,1.5,0,2.3,0.1
				C153.3,126.5,153.4,126.5,153.5,126.5L153.5,126.5z"/>
		</g>
	</g>
</g>
<g>
	<path class="st1" d="M269.4,22.6c-4.8,4.9-9.6,9.8-14.4,14.8c-8.6,8.8-17.2,17.7-25.8,26.4c-2.2,2.3-4.6,4.7-7.3,6.1
		c-2.6,1.3-6.2,2.5-8.6,1.7c-15.6-5.5-30.2,6.5-33.8,20.4c-0.4,1.6-1,3.1-1.4,4.7v6.2c1.2,0,2.6,0.4,3.5-0.1c4.4-2.6,8.7-5.5,13-8.2
		c4.8-3,9.6-2.8,13.2,1.4c2.7,3.1,5,6.9,6.3,10.7c1.8,5.3-0.4,9.4-5.1,12.4c-4.5,2.9-9,5.9-14.1,9.2c1.4,1.1,2.3,2.1,3.4,2.6
		c12.1,5.3,25.9,2.6,35.2-6.6c6.9-6.9,8.8-15.2,6.6-24.4c-1.3-5.6-0.1-10.2,3.9-14.1c5.1-5,10.4-10,15.6-14.9
		c5.7-5.3,11.4-10.6,17.1-15.9"/>
</g>
</svg>
